<?xml version="1.0" encoding="UTF-8" standalone="no"?>
<svg
   width="1920"
   zoomAndPan="magnify"
   viewBox="0 0 1440 809.999993"
   height="1080"
   preserveAspectRatio="xMidYMid meet"
   version="1.0"
   id="svg80"
   sodipodi:docname="turnstyl.svg"
   inkscape:version="1.2.2 (732a01da63, 2022-12-09)"
   xmlns:inkscape="http://www.inkscape.org/namespaces/inkscape"
   xmlns:sodipodi="http://sodipodi.sourceforge.net/DTD/sodipodi-0.dtd"
   xmlns="http://www.w3.org/2000/svg"
   xmlns:svg="http://www.w3.org/2000/svg">
  <sodipodi:namedview
     id="namedview82"
     pagecolor="#ffffff"
     bordercolor="#000000"
     borderopacity="0.25"
     inkscape:showpageshadow="2"
     inkscape:pageopacity="0.0"
     inkscape:pagecheckerboard="0"
     inkscape:deskcolor="#d1d1d1"
     showgrid="false"
     inkscape:zoom="0.3176087"
     inkscape:cx="790.28062"
     inkscape:cy="678.50787"
     inkscape:window-width="1368"
     inkscape:window-height="850"
     inkscape:window-x="-6"
     inkscape:window-y="-6"
     inkscape:window-maximized="1"
     inkscape:current-layer="svg80" />
  <defs
     id="defs4">
    <g
       id="g2" />
  </defs>
  <g
     fill="#4eb4bf"
     fill-opacity="1"
     id="g16"
     transform="matrix(13.739002,0,0,13.739002,-9156.2707,-4893.3509)">
    <g
       transform="translate(667.22458,393.15527)"
       id="g14">
      <g
         id="g12">
        <path
           d="m 8.917969,-3.472656 c -1.441407,0 -2.242188,-0.800782 -2.242188,-2.1875 v -5.605469 h 3.925781 v -3.152344 H 6.621094 V -18.15625 H 5.875 l -5.6875,6.035156 v 0.855469 H 2.777344 V -5.125 c 0,3.175781 1.949218,5.125 5.125,5.125 h 2.777344 v -3.472656 z m 0,0"
           id="path10" />
      </g>
    </g>
  </g>
  <g
     fill="#4eb4bf"
     fill-opacity="1"
     id="g24"
     transform="matrix(13.739002,0,0,13.739002,-9156.2707,-4893.3509)">
    <g
       transform="translate(678.70356,393.15527)"
       id="g22">
      <g
         id="g20">
        <path
           d="m 8.4375,0.425781 c 4.085938,0 6.78125,-2.613281 6.78125,-6.511719 v -8.332031 h -3.898438 v 7.902344 c 0,2.03125 -1.066406,3.257813 -2.882812,3.257813 -1.789062,0 -2.882812,-1.199219 -2.882812,-3.257813 v -7.902344 H 1.65625 v 8.332031 c 0,3.898438 2.722656,6.511719 6.78125,6.511719 z m 0,0"
           id="path18" />
      </g>
    </g>
  </g>
  <g
     fill="#4eb4bf"
     fill-opacity="1"
     id="g32"
     transform="matrix(13.739002,0,0,13.739002,-9156.2707,-4893.3509)">
    <g
       transform="translate(695.60169,393.15527)"
       id="g30">
      <g
         id="g28">
        <path
           d="m 9.238281,-14.5 c -1.867187,0 -3.152343,0.589844 -4.191406,1.871094 L 4.351562,-14.417969 H 1.867188 V 0 h 3.898437 v -7.476562 c 0,-2.347657 0.855469,-3.335938 3.046875,-3.335938 h 1.707031 V -14.5 Z m 0,0"
           id="path26" />
      </g>
    </g>
  </g>
  <g
     fill="#4eb4bf"
     fill-opacity="1"
     id="g40"
     transform="matrix(13.739002,0,0,13.739002,-9156.2707,-4893.3509)">
    <g
       transform="translate(706.46668,393.15527)"
       id="g38">
      <g
         id="g36">
        <path
           d="m 10.066406,-14.738281 c -1.949218,0 -3.683594,0.828125 -4.78125,2.109375 L 4.539062,-14.417969 H 1.867188 V 0 h 3.898437 v -7.554688 c 0,-2.324218 1.230469,-3.765624 3.230469,-3.765624 1.683594,0 2.511718,1.039062 2.511718,3.230468 V 0 h 3.898438 v -8.730469 c 0,-3.660156 -2.054688,-6.007812 -5.339844,-6.007812 z m 0,0"
           id="path34" />
      </g>
    </g>
  </g>
  <g
     fill="#4eb4bf"
     fill-opacity="1"
     id="g48"
     transform="matrix(13.739002,0,0,13.739002,-9156.2707,-4893.3509)">
    <g
       transform="translate(723.57838,393.15527)"
       id="g46">
      <g
         id="g44">
        <path
           d="m 6.96875,0.425781 c 3.65625,0 6.0625,-1.921875 6.0625,-4.859375 0,-3.523437 -3.019531,-4.003906 -5.367188,-4.429687 -1.496093,-0.269531 -2.722656,-0.507813 -2.722656,-1.46875 0,-0.828125 0.71875,-1.363281 1.921875,-1.363281 1.359375,0 2.160157,0.5625 2.1875,1.710937 h 3.710938 c -0.02734,-2.886719 -2.320313,-4.835937 -5.792969,-4.835937 -3.472656,0 -5.792969,1.898437 -5.792969,4.621093 0,3.390625 2.9375,4.003907 5.230469,4.40625 1.523438,0.238281 2.777344,0.53125 2.777344,1.519531 0,0.960938 -0.988282,1.46875 -2.054688,1.46875 -1.386718,0 -2.375,-0.640624 -2.402344,-1.921874 H 0.933594 c 0,3.070312 2.429687,5.152343 6.035156,5.152343 z m 0,0"
           id="path42" />
      </g>
    </g>
  </g>
  <g
     fill="#4eb4bf"
     fill-opacity="1"
     id="g56"
     transform="matrix(13.739002,0,0,13.739002,-9156.2707,-4893.3509)">
    <g
       transform="translate(737.59342,393.15527)"
       id="g54">
      <g
         id="g52">
        <path
           d="m 8.917969,-3.472656 c -1.441407,0 -2.242188,-0.800782 -2.242188,-2.1875 v -5.605469 h 3.925781 v -3.152344 H 6.621094 V -18.15625 H 5.875 l -5.6875,6.035156 v 0.855469 H 2.777344 V -5.125 c 0,3.175781 1.949218,5.125 5.125,5.125 h 2.777344 v -3.472656 z m 0,0"
           id="path50" />
      </g>
    </g>
  </g>
  <g
     fill="#4eb4bf"
     fill-opacity="1"
     id="g64"
     transform="matrix(13.739002,0,0,13.739002,-9156.2707,-4893.3509)">
    <g
       transform="translate(749.0724,393.15527)"
       id="g62">
      <g
         id="g60">
        <path
           d="m 11.828125,-14.417969 -3.605469,8.890625 -3.84375,-8.890625 H 0.132812 L 6.246094,-1.09375 6.195312,-0.988281 C 5.3125,1.203125 4.832031,1.707031 2.9375,1.707031 H 1.601562 v 3.5 h 1.601563 c 3.230469,0 4.753906,-1.46875 6.488281,-5.394531 l 6.273438,-14.230469 z m 0,0"
           id="path58" />
      </g>
    </g>
  </g>
  <g
     fill="#4eb4bf"
     fill-opacity="1"
     id="g72"
     transform="matrix(13.739002,0,0,13.739002,-9156.2707,-4893.3509)">
    <g
       transform="translate(765.14297,393.15527)"
       id="g70">
      <g
         id="g68">
        <path
           d="M 1.867188,0 H 5.765625 V -19.597656 H 1.867188 Z m 0,0"
           id="path66" />
      </g>
    </g>
  </g>
  <g
     fill="#4eb4bf"
     fill-opacity="1"
     id="g78">
    <g
       transform="translate(719.994108, 429.905271)"
       id="g76">
      <g
         id="g74" />
    </g>
  </g>
</svg>
